<svg width="105" height="105" viewBox="0 0 105 105" fill="none" xmlns="http://www.w3.org/2000/svg">
<path d="M52.0195 0C80.7492 0 104.04 23.2899 104.04 52.0195C104.04 80.7494 80.7494 104.04 52.0195 104.04C23.2899 104.04 0 80.7492 0 52.0195C0.000255672 23.2901 23.2901 0.000255639 52.0195 0ZM24.9697 49.2363C24.9697 59.158 30.675 68.336 39.7285 72.6768L53.1221 79.126V52.4609L59.1992 55.9336C69.989 62.1346 76.6864 73.6683 76.6865 86.1943H81.1514V55.6855C81.1514 45.7638 75.4461 36.5859 66.3926 32.2451L52.998 25.7969V52.4609L46.9209 48.9883C36.1314 42.7872 29.4347 31.2534 29.4346 18.7275H24.9697V49.2363Z" fill="white"/>
</svg>
