<svg width="105" height="105" viewBox="0 0 105 105" fill="none" xmlns="http://www.w3.org/2000/svg">
<path d="M76.04 0C91.504 1.05253e-05 104.04 12.536 104.04 28V76.04C104.04 91.504 91.504 104.04 76.04 104.04H28C12.536 104.04 1.38776e-05 91.504 0 76.04V28C0 12.536 12.536 0 28 0H76.04ZM24.9697 49.2363C24.9697 59.158 30.675 68.336 39.7285 72.6768L53.1221 79.126V52.4609L59.1992 55.9336C69.989 62.1346 76.6864 73.6683 76.6865 86.1943H81.1514V55.6855C81.1514 45.7638 75.4461 36.5859 66.3926 32.2451L52.998 25.7969V52.4609L46.9209 48.9883C36.1314 42.7872 29.4347 31.2534 29.4346 18.7275H24.9697V49.2363Z" fill="url(#paint0_linear_235_5)"/>
<defs>
<linearGradient id="paint0_linear_235_5" x1="52" y1="4" x2="69.3597" y2="98.3044" gradientUnits="userSpaceOnUse">
<stop stop-color="#957AFC"/>
<stop offset="1" stop-color="#4B24E0"/>
</linearGradient>
</defs>
</svg>
